<svg id="Layer_1" data-name="Layer 1" xmlns="http://www.w3.org/2000/svg" xmlns:xlink="http://www.w3.org/1999/xlink" viewBox="0 0 1859.76 579.56"><defs><style>.cls-1{fill:#ee2e7c;}.cls-2{fill:#d91f5d;}.cls-3{fill:#9e2064;}.cls-4{fill:#660f40;}.cls-5{fill:#231f20;}.cls-6{fill:url(#Nieuwe_verloopstaal_2);}.cls-7{fill:url(#Nieuwe_verloopstaal_2-2);}.cls-8{fill:url(#Nieuwe_verloopstaal_2-3);}.cls-9{fill:url(#Nieuwe_verloopstaal_2-4);}.cls-10{fill:url(#Nieuwe_verloopstaal_2-5);}.cls-11{fill:url(#Nieuwe_verloopstaal_2-6);}.cls-12{fill:url(#Nieuwe_verloopstaal_2-7);}.cls-13{fill:url(#Nieuwe_verloopstaal_2-8);}.cls-14{fill:url(#Nieuwe_verloopstaal_2-9);}.cls-15{fill:url(#Nieuwe_verloopstaal_2-10);}.cls-16{fill:url(#Nieuwe_verloopstaal_2-11);}.cls-17{fill:url(#Nieuwe_verloopstaal_2-12);}.cls-18{fill:url(#Nieuwe_verloopstaal_2-13);}.cls-19{fill:url(#Nieuwe_verloopstaal_2-14);}.cls-20{fill:url(#Nieuwe_verloopstaal_2-15);}.cls-21{fill:url(#Nieuwe_verloopstaal_2-16);}</style><linearGradient id="Nieuwe_verloopstaal_2" x1="650.99" y1="262.29" x2="650.99" y2="168.79" gradientUnits="userSpaceOnUse"><stop offset="0" stop-color="#d91f5d"/><stop offset="1" stop-color="#ee2e7c"/></linearGradient><linearGradient id="Nieuwe_verloopstaal_2-2" x1="802.09" y1="262.29" x2="802.09" y2="168.79" xlink:href="#Nieuwe_verloopstaal_2"/><linearGradient id="Nieuwe_verloopstaal_2-3" x1="1018.75" y1="262.29" x2="1018.75" y2="168.79" xlink:href="#Nieuwe_verloopstaal_2"/><linearGradient id="Nieuwe_verloopstaal_2-4" x1="1187.36" y1="262.29" x2="1187.36" y2="168.79" xlink:href="#Nieuwe_verloopstaal_2"/><linearGradient id="Nieuwe_verloopstaal_2-5" x1="1344.58" y1="262.29" x2="1344.58" y2="168.79" xlink:href="#Nieuwe_verloopstaal_2"/><linearGradient id="Nieuwe_verloopstaal_2-6" x1="1478.51" y1="262.29" x2="1478.51" y2="168.79" xlink:href="#Nieuwe_verloopstaal_2"/><linearGradient id="Nieuwe_verloopstaal_2-7" x1="1584.11" y1="262.29" x2="1584.11" y2="168.79" xlink:href="#Nieuwe_verloopstaal_2"/><linearGradient id="Nieuwe_verloopstaal_2-8" x1="1693.72" y1="262.29" x2="1693.72" y2="168.79" xlink:href="#Nieuwe_verloopstaal_2"/><linearGradient id="Nieuwe_verloopstaal_2-9" x1="670.93" y1="419.6" x2="670.93" y2="326.1" xlink:href="#Nieuwe_verloopstaal_2"/><linearGradient id="Nieuwe_verloopstaal_2-10" x1="844.69" y1="419.6" x2="844.69" y2="326.1" xlink:href="#Nieuwe_verloopstaal_2"/><linearGradient id="Nieuwe_verloopstaal_2-11" x1="993.85" y1="419.6" x2="993.85" y2="326.1" xlink:href="#Nieuwe_verloopstaal_2"/><linearGradient id="Nieuwe_verloopstaal_2-12" x1="1122" y1="419.6" x2="1122" y2="326.1" xlink:href="#Nieuwe_verloopstaal_2"/><linearGradient id="Nieuwe_verloopstaal_2-13" x1="1254.29" y1="419.6" x2="1254.29" y2="326.1" xlink:href="#Nieuwe_verloopstaal_2"/><linearGradient id="Nieuwe_verloopstaal_2-14" x1="1386.51" y1="419.6" x2="1386.51" y2="326.1" xlink:href="#Nieuwe_verloopstaal_2"/><linearGradient id="Nieuwe_verloopstaal_2-15" x1="1546.07" y1="419.6" x2="1546.07" y2="326.1" xlink:href="#Nieuwe_verloopstaal_2"/><linearGradient id="Nieuwe_verloopstaal_2-16" x1="1699.31" y1="419.6" x2="1699.31" y2="326.1" xlink:href="#Nieuwe_verloopstaal_2"/></defs><title>De Gratis Makelaar</title><circle class="cls-1" cx="274.71" cy="39.19" r="7.97"/><circle class="cls-1" cx="274.71" cy="88.52" r="7.97"/><path class="cls-1" d="M231.06,71.82a8,8,0,1,0-8-8A8,8,0,0,0,231.06,71.82Z"/><circle class="cls-1" cx="231.06" cy="113.18" r="7.97"/><path class="cls-1" d="M188.55,96.49a8,8,0,1,0-8-8A8,8,0,0,0,188.55,96.49Z"/><path class="cls-1" d="M188.55,145.81a8,8,0,1,0-8-8A8,8,0,0,0,188.55,145.81Z"/><circle class="cls-1" cx="144.89" cy="113.18" r="7.97"/><circle class="cls-2" cx="144.89" cy="162.5" r="7.97"/><path class="cls-1" d="M101.9,146.75a8,8,0,1,0-8-8A8,8,0,0,0,101.9,146.75Z"/><circle class="cls-2" cx="101.9" cy="188.11" r="7.97"/><path class="cls-2" d="M58.25,155.47a8,8,0,1,0,8,8A8,8,0,0,0,58.25,155.47Z"/><path class="cls-2" d="M58.25,204.8a8,8,0,1,0,8,8A8,8,0,0,0,58.25,204.8Z"/><path class="cls-3" d="M58.25,256.67a8,8,0,1,0,8,8A8,8,0,0,0,58.25,256.67Z"/><path class="cls-3" d="M58.25,306a8,8,0,1,0,8,8A8,8,0,0,0,58.25,306Z"/><path class="cls-4" d="M58.25,355.7a8,8,0,1,0,8,8A8,8,0,0,0,58.25,355.7Z"/><path class="cls-3" d="M101.9,297.28a8,8,0,1,0-8-8A8,8,0,0,0,101.9,297.28Z"/><path class="cls-4" d="M101.9,347a8,8,0,1,0-8-8A8,8,0,0,0,101.9,347Z"/><path class="cls-4" d="M58.25,405a8,8,0,1,0,8,8A8,8,0,0,0,58.25,405Z"/><circle class="cls-4" cx="101.9" cy="388.33" r="7.97"/><path class="cls-5" d="M101.9,429.68a8,8,0,1,0,8,8A8,8,0,0,0,101.9,429.68Z"/><path class="cls-5" d="M144.89,454.35a8,8,0,1,0,8,8A8,8,0,0,0,144.89,454.35Z"/><circle class="cls-5" cx="187.97" cy="438.88" r="7.97"/><circle class="cls-5" cx="187.97" cy="488.21" r="7.97"/><path class="cls-5" d="M231.06,455.57a8,8,0,1,0,8,8A8,8,0,0,0,231.06,455.57Z"/><circle class="cls-5" cx="231.06" cy="512.87" r="7.97"/><circle class="cls-5" cx="274.71" cy="540.36" r="7.97"/><circle class="cls-5" cx="273.58" cy="438.27" r="7.97"/><path class="cls-5" d="M273.58,495.56a8,8,0,1,0-8-8A8,8,0,0,0,273.58,495.56Z"/><circle class="cls-4" cx="273.58" cy="338.35" r="7.97"/><path class="cls-4" d="M273.58,395.64a8,8,0,1,0-8-8A8,8,0,0,0,273.58,395.64Z"/><path class="cls-2" d="M274.71,171.26a16.85,16.85,0,1,0,16.86,16.85A16.86,16.86,0,0,0,274.71,171.26Z"/><path class="cls-1" d="M274.71,121a16.85,16.85,0,1,0,16.86,16.85A16.86,16.86,0,0,0,274.71,121Z"/><path class="cls-2" d="M231.06,145.65a16.85,16.85,0,1,0,16.86,16.85A16.87,16.87,0,0,0,231.06,145.65Z"/><path class="cls-2" d="M188.54,171.25a16.86,16.86,0,1,0,16.85,16.86A16.87,16.87,0,0,0,188.54,171.25Z"/><path class="cls-2" d="M144.89,195.92a16.85,16.85,0,1,0,16.85,16.85A16.86,16.86,0,0,0,144.89,195.92Z"/><path class="cls-2" d="M101.89,221.9a16.86,16.86,0,1,0,16.86,16.85A16.86,16.86,0,0,0,101.89,221.9Z"/><path class="cls-2" d="M316.81,179.35A16.85,16.85,0,1,0,300,162.5,16.86,16.86,0,0,0,316.81,179.35Z"/><path class="cls-2" d="M359.33,205a16.86,16.86,0,1,0-16.85-16.85A16.86,16.86,0,0,0,359.33,205Z"/><path class="cls-2" d="M403,195.92a16.85,16.85,0,1,0,16.85,16.85A16.88,16.88,0,0,0,403,195.92Z"/><path class="cls-2" d="M446,221.9a16.86,16.86,0,1,0,16.85,16.85A16.87,16.87,0,0,0,446,221.9Z"/><path class="cls-2" d="M231.06,230.28a16.85,16.85,0,1,0-16.85-16.85A16.86,16.86,0,0,0,231.06,230.28Z"/><path class="cls-3" d="M231.06,280.87A16.85,16.85,0,1,0,214.21,264,16.86,16.86,0,0,0,231.06,280.87Z"/><path class="cls-2" d="M188.55,221.9a16.86,16.86,0,1,0,16.84,16.85A16.87,16.87,0,0,0,188.55,221.9Z"/><path class="cls-3" d="M188.55,272.55a16.85,16.85,0,1,0,16.84,16.85A16.87,16.87,0,0,0,188.55,272.55Z"/><path class="cls-3" d="M144.89,246.66a16.85,16.85,0,1,0,16.85,16.85A16.87,16.87,0,0,0,144.89,246.66Z"/><path class="cls-3" d="M144.89,297.3a16.86,16.86,0,1,0,16.85,16.86A16.87,16.87,0,0,0,144.89,297.3Z"/><path class="cls-4" d="M188.55,321.4a16.85,16.85,0,1,0,16.84,16.85A16.87,16.87,0,0,0,188.55,321.4Z"/><path class="cls-4" d="M188.55,371.48a16.85,16.85,0,1,0,16.84,16.85A16.87,16.87,0,0,0,188.55,371.48Z"/><path class="cls-4" d="M144.89,346.15A16.86,16.86,0,1,0,161.74,363,16.88,16.88,0,0,0,144.89,346.15Z"/><path class="cls-4" d="M231.07,346.15A16.86,16.86,0,1,0,247.92,363,16.88,16.88,0,0,0,231.07,346.15Z"/><path class="cls-4" d="M316.82,346.15A16.86,16.86,0,1,0,333.67,363,16.88,16.88,0,0,0,316.82,346.15Z"/><path class="cls-4" d="M144.89,401.43A11.56,11.56,0,1,0,156.45,413,11.58,11.58,0,0,0,144.89,401.43Z"/><path class="cls-3" d="M231.06,330.82A16.86,16.86,0,1,0,214.21,314,16.87,16.87,0,0,0,231.06,330.82Z"/><path class="cls-3" d="M316.82,247.17A16.85,16.85,0,1,0,333.66,264,16.87,16.87,0,0,0,316.82,247.17Z"/><path class="cls-3" d="M316.82,330.82A16.86,16.86,0,1,0,300,314,16.86,16.86,0,0,0,316.82,330.82Z"/><path class="cls-2" d="M273.59,221.71a16.86,16.86,0,1,0,16.84,16.85A16.87,16.87,0,0,0,273.59,221.71Z"/><path class="cls-3" d="M273.59,272.3a16.85,16.85,0,1,0,16.84,16.85A16.87,16.87,0,0,0,273.59,272.3Z"/><path class="cls-4" d="M359.9,371.57a16.86,16.86,0,1,0,16.85,16.85A16.87,16.87,0,0,0,359.9,371.57Z"/><path class="cls-1" d="M316.81,71.82a8,8,0,1,0-8-8A8,8,0,0,0,316.81,71.82Z"/><circle class="cls-1" cx="316.81" cy="113.18" r="7.97"/><circle class="cls-1" cx="359.33" cy="88.52" r="7.97"/><circle class="cls-1" cx="359.33" cy="137.84" r="7.97"/><circle class="cls-1" cx="402.99" cy="113.18" r="7.97"/><circle class="cls-2" cx="402.99" cy="162.5" r="7.97"/><path class="cls-1" d="M446,146.75a8,8,0,1,0-8-8A8,8,0,0,0,446,146.75Z"/><circle class="cls-2" cx="445.98" cy="188.11" r="7.97"/><circle class="cls-2" cx="489.63" cy="163.45" r="7.97"/><circle class="cls-2" cx="489.63" cy="212.77" r="7.97"/><circle class="cls-3" cx="489.63" cy="264.65" r="7.97"/><circle class="cls-3" cx="489.63" cy="313.97" r="7.97"/><circle class="cls-4" cx="489.63" cy="363.67" r="7.97"/><circle class="cls-3" cx="445.98" cy="289.75" r="7.97"/><circle class="cls-4" cx="445.98" cy="339.45" r="7.97"/><circle class="cls-4" cx="489.63" cy="412.99" r="7.97"/><circle class="cls-4" cx="445.98" cy="388.33" r="7.97"/><path class="cls-5" d="M446,429.68a8,8,0,1,0,8,8A8,8,0,0,0,446,429.68Z"/><path class="cls-5" d="M403,454.35a8,8,0,1,0,8,8A8,8,0,0,0,403,454.35Z"/><circle class="cls-5" cx="359.9" cy="438.88" r="7.97"/><circle class="cls-5" cx="359.9" cy="488.21" r="7.97"/><path class="cls-5" d="M316.81,455.57a8,8,0,1,0,8,8A8,8,0,0,0,316.81,455.57Z"/><circle class="cls-5" cx="316.81" cy="512.87" r="7.97"/><path class="cls-2" d="M316.81,230.28A16.85,16.85,0,1,0,300,213.43,16.86,16.86,0,0,0,316.81,230.28Z"/><path class="cls-2" d="M359.33,255.61a16.86,16.86,0,1,0-16.85-16.86A16.88,16.88,0,0,0,359.33,255.61Z"/><path class="cls-3" d="M359.33,306.25a16.85,16.85,0,1,0-16.85-16.85A16.88,16.88,0,0,0,359.33,306.25Z"/><path class="cls-3" d="M403,246.66a16.85,16.85,0,1,0,16.85,16.85A16.87,16.87,0,0,0,403,246.66Z"/><path class="cls-3" d="M403,297.3a16.86,16.86,0,1,0,16.85,16.86A16.87,16.87,0,0,0,403,297.3Z"/><path class="cls-4" d="M359.33,356.71a16.86,16.86,0,1,0-16.85-16.85A16.88,16.88,0,0,0,359.33,356.71Z"/><path class="cls-4" d="M403,347.76a16.86,16.86,0,1,0,16.85,16.85A16.87,16.87,0,0,0,403,347.76Z"/><path class="cls-4" d="M316.82,396.23a16.86,16.86,0,1,0,16.85,16.85A16.87,16.87,0,0,0,316.82,396.23Z"/><path class="cls-4" d="M231.06,396.23a16.86,16.86,0,1,0,16.85,16.85A16.87,16.87,0,0,0,231.06,396.23Z"/><path class="cls-4" d="M403,401.52a11.57,11.57,0,1,0,11.56,11.56A11.57,11.57,0,0,0,403,401.52Z"/><path class="cls-6" d="M702,165.86A35,35,0,0,0,687.33,158a78.88,78.88,0,0,0-21.5-2.56H593.47c-3.09,0-4.64,1.54-4.64,4.64V259c0,3.1,1.55,4.64,4.64,4.64h72.36a79.3,79.3,0,0,0,21.5-2.55A35.15,35.15,0,0,0,702,253.22a31.77,31.77,0,0,0,8.44-13.61,63.28,63.28,0,0,0,2.69-19.56V199a63.32,63.32,0,0,0-2.69-19.56A31.86,31.86,0,0,0,702,165.86ZM689.5,218a45.22,45.22,0,0,1-1.25,11.44,15.6,15.6,0,0,1-4.08,7.42,16.88,16.88,0,0,1-7.5,4,45.5,45.5,0,0,1-11.45,1.23H614.5a1.78,1.78,0,0,1-2-2V179.08c0-1.44.68-2.17,2-2.17h50.72a45.46,45.46,0,0,1,11.45,1.24,16.77,16.77,0,0,1,7.5,4,15.65,15.65,0,0,1,4.08,7.42A45.36,45.36,0,0,1,689.5,201Z"/><path class="cls-7" d="M856,155.42h-68A76.25,76.25,0,0,0,768,157.67a31.06,31.06,0,0,0-13.37,7.11,28.35,28.35,0,0,0-7.58,12.6,64.56,64.56,0,0,0-2.39,18.86v26.59A65.49,65.49,0,0,0,747,241.78a28.46,28.46,0,0,0,7.58,12.68,30.55,30.55,0,0,0,13.37,7,78.81,78.81,0,0,0,19.94,2.16h68q3.56,0,3.55-3.4V245.57q0-3.4-3.55-3.41H788.4a40.81,40.81,0,0,1-10-1,13.36,13.36,0,0,1-6.34-3.39,13,13,0,0,1-3.33-6.5,47.37,47.37,0,0,1-.92-10.13v-2.62h87.35c2.27,0,3.41-1.14,3.41-3.4V202.88c0-2.25-1.14-3.39-3.41-3.39H767.84v-1.55a47.44,47.44,0,0,1,.92-10.13,12.92,12.92,0,0,1,3.33-6.49,13.37,13.37,0,0,1,6.34-3.4,41.3,41.3,0,0,1,10-1H856c2.37,0,3.55-1.12,3.55-3.4V158.82C859.52,156.56,858.34,155.42,856,155.42Z"/><path class="cls-8" d="M1077.89,155.42h-78.4a76.3,76.3,0,0,0-19.94,2.25,31.06,31.06,0,0,0-13.37,7.11,28.44,28.44,0,0,0-7.58,12.6,64.56,64.56,0,0,0-2.39,18.86v26.59a65.49,65.49,0,0,0,2.39,18.95,28.55,28.55,0,0,0,7.58,12.68,30.55,30.55,0,0,0,13.37,7,78.87,78.87,0,0,0,19.94,2.16H1062q9.26,0,14.22-5.33t5-18.32V204q0-4.64-4.64-4.64H1012c-2.27,0-3.39,1.18-3.39,3.55v11.6c0,2.37,1.12,3.56,3.39,3.56h45.31c1.23,0,1.86.67,1.86,2v12.53c0,3.5-.63,5.95-1.86,7.34s-3.21,2.09-5.89,2.09h-51a41.22,41.22,0,0,1-10-1,12.94,12.94,0,0,1-6.27-3.4,13.83,13.83,0,0,1-3.31-6.49,43.46,43.46,0,0,1-1-10.28V198.56a42.54,42.54,0,0,1,1-10.21,13.83,13.83,0,0,1,3.31-6.41,13,13,0,0,1,6.27-3.41,41.79,41.79,0,0,1,10-1h77.45c2.27,0,3.39-1.18,3.39-3.55V158.82C1081.28,156.56,1080.16,155.42,1077.89,155.42Z"/><path class="cls-9" d="M1222.8,227q12.23-2.16,17.63-9.89t5.42-21v-8.82q0-15.77-7.75-23.81t-25.5-8h-83c-3.09,0-4.64,1.54-4.64,4.64V260.25q0,3.4,3.55,3.4h16.7q3.4,0,3.41-3.4V229.48h50L1223,261.64a5.28,5.28,0,0,0,1.55,1.55,5.81,5.81,0,0,0,2.78.46h20c1.43,0,2.27-.51,2.47-1.54a2.43,2.43,0,0,0-.47-2.32Zm-.62-30.15q0,6.94-3.25,10.36c-2.16,2.27-5.86,3.4-11.13,3.4h-59.21V178.46c0-1.23.68-1.86,2-1.86h57.21c5.27,0,9,1.14,11.13,3.41s3.25,5.72,3.25,10.36Z"/><path class="cls-10" d="M1365.93,167.17c-2.6-4.64-5.21-7.75-7.89-9.35a19.09,19.09,0,0,0-9.91-2.4H1339a15.6,15.6,0,0,0-8.66,2.4q-3.7,2.4-7.56,9.35l-50.73,92.93a3.25,3.25,0,0,0-.38,2.55c.26.67,1.06,1,2.41,1h20.09a3.69,3.69,0,0,0,3.55-2l10.67-19.95h72.67l11,19.95a3.5,3.5,0,0,0,3.55,2h19.64c1.23,0,2-.33,2.25-1a3.3,3.3,0,0,0-.39-2.55Zm-47.78,56.59,24.28-45.3a1.85,1.85,0,0,1,1.69-1.08h.92a1.89,1.89,0,0,1,1.7,1.08l24.58,45.3Z"/><path class="cls-11" d="M1538.89,155.42H1418.13c-2.37,0-3.55,1.14-3.55,3.4V174q0,3.56,3.55,3.55h48.56v82.72c0,2.27,1.12,3.4,3.39,3.4h16.86q3.4,0,3.4-3.4V177.53h48.55q3.55,0,3.56-3.55V158.82C1542.45,156.56,1541.26,155.42,1538.89,155.42Z"/><path class="cls-12" d="M1592.53,155.42h-16.69c-2.37,0-3.56,1.14-3.56,3.4V260.25q0,3.4,3.56,3.4h16.69c2.27,0,3.42-1.13,3.42-3.4V158.82C1596,156.56,1594.8,155.42,1592.53,155.42Z"/><path class="cls-13" d="M1725,199.49h-58q-8,0-8-8.66v-5.26a9.89,9.89,0,0,1,1.86-6.34c1.23-1.54,3.36-2.32,6.34-2.32h77.45c2.27,0,3.42-1.12,3.42-3.4V158.82c0-2.26-1.15-3.4-3.42-3.4h-81.93q-14.07,0-20.72,7t-6.64,18.25v11.28q0,12.84,6.78,19.71t20.28,6.89h58q8,0,8,8.65v6.34a9.85,9.85,0,0,1-1.86,6.34c-1.23,1.55-3.35,2.32-6.34,2.32h-81.17q-3.55,0-3.56,3.41v14.68q0,3.4,3.56,3.4h85.65q14.07,0,20.72-7t6.66-18.24V226.08q0-12.83-6.8-19.71T1725,199.49Z"/><path class="cls-14" d="M739.43,312.73H722.89a30,30,0,0,0-5.8.47,10.64,10.64,0,0,0-4.25,1.78,12.58,12.58,0,0,0-3.33,3.56,36,36,0,0,0-3,5.94L674.34,398.7a2.18,2.18,0,0,1-2.17,1.39h-1.86a2.22,2.22,0,0,1-2.17-1.39L636,324.48a38.38,38.38,0,0,0-3-5.94,12.82,12.82,0,0,0-3.31-3.56,11,11,0,0,0-4.33-1.78,31.56,31.56,0,0,0-5.89-.47H602.6q-8.21,0-11,3.64t-2.8,12.45v88.74c0,2.27,1.18,3.4,3.56,3.4h15.77c2.27,0,3.39-1.13,3.39-3.4v-80.7c0-1,.43-1.56,1.25-1.56h1.39a1.91,1.91,0,0,1,2,1.24l31.25,69.27a45.23,45.23,0,0,0,3.78,7,22.53,22.53,0,0,0,4.17,4.71,13.32,13.32,0,0,0,5.11,2.63,25.72,25.72,0,0,0,6.72.77h7.42a25.75,25.75,0,0,0,6.73-.77,13.13,13.13,0,0,0,5.1-2.63,22,22,0,0,0,4.17-4.71,46.89,46.89,0,0,0,3.81-7l31.22-69.27a1.92,1.92,0,0,1,2-1.24h1.39c.84,0,1.25.52,1.25,1.56v80.7q0,3.4,3.39,3.4h15.78q3.56,0,3.56-3.4V328.82q0-8.82-2.78-12.45C748.4,314,744.78,312.73,739.43,312.73Z"/><path class="cls-15" d="M866,324.48c-2.6-4.64-5.21-7.75-7.89-9.35a19.09,19.09,0,0,0-9.91-2.4h-9.12a15.6,15.6,0,0,0-8.66,2.4q-3.71,2.4-7.56,9.35l-50.73,92.93a3.25,3.25,0,0,0-.38,2.55c.26.67,1.06,1,2.41,1h20.09a3.69,3.69,0,0,0,3.55-2L808.51,399h72.67l11,19.95a3.5,3.5,0,0,0,3.55,2h19.64c1.23,0,2-.33,2.25-1a3.3,3.3,0,0,0-.39-2.55Zm-47.78,56.59,24.28-45.3a1.86,1.86,0,0,1,1.69-1.08h.92a1.89,1.89,0,0,1,1.7,1.08l24.58,45.3Z"/><path class="cls-16" d="M1021.44,376.74a45.18,45.18,0,0,0-11.75-11.13,53.79,53.79,0,0,0,4.41-4.33q2.24-2.47,4.87-6l30-38.81a2.59,2.59,0,0,0,.36-2.39c-.24-.88-1-1.32-2.39-1.32h-19.17a6.2,6.2,0,0,0-2.94.47,5.44,5.44,0,0,0-1.53,1.54L996.69,350.3a28.58,28.58,0,0,1-3.23,3.56,11.88,11.88,0,0,1-3.41,2.17,15.15,15.15,0,0,1-4.33,1q-2.46.23-6.18.23h-21.8V316.13c0-2.26-1.15-3.4-3.41-3.4h-16.7c-2.37,0-3.56,1.14-3.56,3.4V417.56q0,3.4,3.56,3.4h16.7c2.26,0,3.41-1.13,3.41-3.4V375.2h23.5q7.11,0,10.67,1.47a16.66,16.66,0,0,1,6.64,5.48L1027,419a5.39,5.39,0,0,0,1.55,1.55,5.81,5.81,0,0,0,2.78.46h19.78c1.56,0,2.37-.54,2.5-1.62a3.34,3.34,0,0,0-.47-2.39Z"/><path class="cls-17" d="M1175.88,312.73h-68A76.33,76.33,0,0,0,1087.9,315a31,31,0,0,0-13.36,7.11,28.26,28.26,0,0,0-7.58,12.6,64.22,64.22,0,0,0-2.39,18.86v26.59a65.15,65.15,0,0,0,2.39,18.95,28.37,28.37,0,0,0,7.58,12.68,30.51,30.51,0,0,0,13.36,7,78.9,78.9,0,0,0,19.95,2.16h68q3.55,0,3.56-3.4V402.88q0-3.4-3.56-3.41h-67.56a40.69,40.69,0,0,1-10-1,13.36,13.36,0,0,1-6.34-3.39,12.88,12.88,0,0,1-3.33-6.5,47.37,47.37,0,0,1-.92-10.13v-2.62h87.35c2.26,0,3.41-1.14,3.41-3.4V360.2c0-2.26-1.15-3.4-3.41-3.4h-87.35v-1.55a47.44,47.44,0,0,1,.92-10.13,12.88,12.88,0,0,1,3.33-6.49,13.37,13.37,0,0,1,6.34-3.4,41.19,41.19,0,0,1,10-1h67.56c2.37,0,3.56-1.12,3.56-3.4V316.13C1179.44,313.87,1178.25,312.73,1175.88,312.73Z"/><path class="cls-18" d="M1300.7,399h-52a40.86,40.86,0,0,1-10-1,12.66,12.66,0,0,1-6.25-3.4,13.71,13.71,0,0,1-3.33-6.49,43.61,43.61,0,0,1-1-10.29V316.13c0-2.26-1.14-3.4-3.41-3.4h-16.7c-2.37,0-3.55,1.14-3.55,3.4v64a65.49,65.49,0,0,0,2.39,18.95,28.64,28.64,0,0,0,7.58,12.68,30.51,30.51,0,0,0,13.39,7A78.7,78.7,0,0,0,1247.8,421h52.9c2.27,0,3.39-1.13,3.39-3.4V402.41C1304.09,400.14,1303,399,1300.7,399Z"/><path class="cls-19" d="M1407.86,324.48c-2.59-4.64-5.21-7.75-7.89-9.35s-7.2-2.4-11.12-2.4h-9.11a11.86,11.86,0,0,0-7.46,2.4q-3.71,2.4-7.56,9.35L1314,417.41a3.26,3.26,0,0,0-.39,2.55c.26.67,1.06,1,2.41,1h20.09a3.69,3.69,0,0,0,3.55-2L1350.33,399H1423L1434,419a3.51,3.51,0,0,0,3.55,2h19.64c1.23,0,2-.33,2.25-1a3.26,3.26,0,0,0-.39-2.55Zm-47.78,56.59,24.28-45.3a1.87,1.87,0,0,1,1.7-1.08h.91a1.89,1.89,0,0,1,1.7,1.08l24.59,45.3Z"/><path class="cls-20" d="M1567.42,324.48c-2.6-4.64-5.21-7.75-7.89-9.35s-7.2-2.4-11.12-2.4h-9.12a11.83,11.83,0,0,0-7.45,2.4c-2.48,1.6-5,4.71-7.56,9.35l-50.73,92.93a3.3,3.3,0,0,0-.39,2.55c.27.67,1.07,1,2.42,1h20.08a3.7,3.7,0,0,0,3.56-2L1509.89,399h72.67l11,19.95a3.53,3.53,0,0,0,3.56,2h19.64c1.23,0,2-.33,2.25-1a3.3,3.3,0,0,0-.39-2.55Zm-47.78,56.59,24.28-45.3a1.85,1.85,0,0,1,1.69-1.08h.92a1.89,1.89,0,0,1,1.7,1.08l24.58,45.3Z"/><path class="cls-21" d="M1734.75,384.32q12.23-2.16,17.63-9.89t5.42-21v-8.82q0-15.76-7.74-23.81c-5.15-5.35-14.87-8-26.72-8h-83c-3.09,0-3.43,1.54-3.43,4.64V417.56q0,3.4,3.55,3.4h16.7q3.4,0,3.41-3.4V386.79h50L1734.91,419a5.16,5.16,0,0,0,1.55,1.55,5.86,5.86,0,0,0,2.78.46h20c1.43,0,2.27-.51,2.47-1.54a2.43,2.43,0,0,0-.47-2.32Zm-.61-30.15q0,7-3.25,10.36c-2.17,2.27-5.87,3.4-11.14,3.4h-59.21V335.77c0-1.23.68-1.86,2-1.86h57.2c5.27,0,9,1.14,11.14,3.41s3.25,5.72,3.25,10.36Z"/></svg>