<?xml version="1.0" encoding="utf-8"?>
<!-- Generator: Adobe Illustrator 18.1.1, SVG Export Plug-In . SVG Version: 6.00 Build 0)  -->
<svg version="1.1" id="Laag_1" xmlns="http://www.w3.org/2000/svg" xmlns:xlink="http://www.w3.org/1999/xlink" x="0px" y="0px"
	 viewBox="0 0 173 34.5" enable-background="new 0 0 173 34.5" xml:space="preserve">
<g>
	<path fill-rule="evenodd" clip-rule="evenodd" d="M94.6,23.8l-1.1-8.2c-0.2-1.6-0.3-2.7-0.4-3.4h0c-0.1,0.6-0.4,1.3-0.7,2.2
		L89,23.8h-1.8L84.1,15c-0.4-1-0.8-2-0.9-2.8h0c-0.1,1-0.2,2.1-0.4,3.5l-1,8.2h-1.7l2-13.5h2.1l3.2,9.1c0.4,1,0.6,1.8,0.8,2.6h0
		c0.2-0.9,0.4-1.5,0.7-2.4l3.3-9.2h2.2l1.9,13.5H94.6L94.6,23.8z"/>
	<path fill-rule="evenodd" clip-rule="evenodd" d="M107,23.8l-1.2-3.1h-6.5L98,23.8h-1.7l5.4-13.5h1.8l5.3,13.5H107L107,23.8z
		 M103.4,14.4c-0.3-0.8-0.6-1.7-0.8-2.4h0c-0.2,0.7-0.5,1.6-0.8,2.4l-1.9,5h5.6L103.4,14.4L103.4,14.4z"/>
	<polygon fill-rule="evenodd" clip-rule="evenodd" points="117.8,23.8 111.7,17 111.7,23.8 110,23.8 110,10.3 111.7,10.3 
		111.7,16.8 117.8,10.3 119.9,10.3 113.6,16.9 120.1,23.8 117.8,23.8 	"/>
	<polygon fill-rule="evenodd" clip-rule="evenodd" points="121.5,23.8 121.5,10.3 128.6,10.3 128.6,11.6 123.1,11.6 123.1,16.2 
		128.4,16.2 128.4,17.5 123.1,17.5 123.1,22.5 128.6,22.5 128.6,23.8 121.5,23.8 	"/>
	<polygon fill-rule="evenodd" clip-rule="evenodd" points="130.1,23.8 130.1,10.3 131.8,10.3 131.8,22.5 136.9,22.5 136.9,23.8 
		130.1,23.8 	"/>
	<path fill-rule="evenodd" clip-rule="evenodd" d="M148.4,23.8l-1.2-3.1h-6.5l-1.2,3.1h-1.7l5.4-13.5h1.8l5.3,13.5H148.4L148.4,23.8
		z M144.8,14.4c-0.3-0.8-0.6-1.7-0.8-2.4h0c-0.2,0.7-0.5,1.6-0.8,2.4l-1.9,5h5.6L144.8,14.4L144.8,14.4z"/>
	<path fill-rule="evenodd" clip-rule="evenodd" d="M160.9,23.8l-1.2-3.1h-6.5l-1.2,3.1h-1.7l5.4-13.5h1.8l5.3,13.5H160.9L160.9,23.8
		z M157.3,14.4c-0.3-0.8-0.6-1.7-0.8-2.4h0c-0.2,0.7-0.5,1.6-0.8,2.4l-1.9,5h5.6L157.3,14.4L157.3,14.4z"/>
	<path fill-rule="evenodd" clip-rule="evenodd" d="M170.9,23.8l-5.1-6.2h-0.1v6.2h-1.7V10.3c0.8,0,1.9-0.1,3.5-0.1
		c3,0,4.7,1.2,4.7,3.4c0,2.5-2,3.8-4.6,3.9c0.4,0.4,0.8,0.9,1.2,1.4l4.2,4.9H170.9L170.9,23.8z M167.3,11.6c-0.7,0-1.1,0-1.6,0.1
		v4.8c0.5,0.1,1.1,0.1,1.6,0.1c1.9,0,3.1-1,3.1-2.6C170.5,12.3,169.3,11.6,167.3,11.6L167.3,11.6z"/>
	<path fill-rule="evenodd" clip-rule="evenodd" d="M9.2,24.1h-4L0,10.4h3.7l2.4,6.4c0.4,1.1,0.8,2.3,1.1,3.7h0
		c0.3-1.3,0.7-2.6,1.1-3.7l2.4-6.4h3.5L9.2,24.1L9.2,24.1z"/>
	<path fill-rule="evenodd" clip-rule="evenodd" d="M20.2,24.2c-1,0-2.8-0.1-4.9-0.1V10.4c1.4,0,3.7-0.1,5.5-0.1
		c3.7,0,5.2,1.3,5.2,3.4c0,1.3-0.7,2.5-2.1,3v0c1.5,0.4,2.3,1.6,2.3,3.1C26.1,21.9,24.7,24.2,20.2,24.2L20.2,24.2z M20,12.7
		c-0.4,0-1,0-1.4,0V16c0.4,0,0.8,0,1,0c1.6,0,2.7-0.6,2.7-1.8C22.3,13.3,21.8,12.7,20,12.7L20,12.7z M19.8,18.1c-0.3,0-0.8,0-1.2,0
		v3.5c0.4,0.1,0.9,0.1,1.5,0.1c1.7,0,2.4-0.8,2.4-1.9C22.5,18.6,21.5,18.1,19.8,18.1L19.8,18.1z"/>
	<path fill-rule="evenodd" clip-rule="evenodd" d="M34.1,24.4c-4.5,0-6.9-2.8-6.9-7c0-4.5,3.5-7.3,7.4-7.3c3.9,0,6.9,2.2,6.9,7
		C41.5,21.6,38.1,24.4,34.1,24.4L34.1,24.4z M34.4,13.1c-1.9,0-3.5,1.4-3.5,4.1c0,2.4,1.1,4.2,3.4,4.2c1.9,0,3.6-1.3,3.6-4.1
		C37.9,14.5,36.5,13.1,34.4,13.1L34.4,13.1z"/>
	<path fill-rule="evenodd" clip-rule="evenodd" fill="#20286D" d="M75.7,25.2V9.3c0-0.5-0.3-1-0.7-1.2L61.3,0.2
		c-0.4-0.3-1-0.3-1.4,0L46.1,8.1l0,0c-0.4,0.3-0.7,0.7-0.7,1.2v15.9c0,0.5,0.3,1,0.7,1.2l13.7,7.9c0.4,0.3,1,0.3,1.4,0L75,26.4l0,0
		C75.4,26.2,75.7,25.7,75.7,25.2L75.7,25.2z"/>
	<polygon fill-rule="evenodd" clip-rule="evenodd" fill="#FFFFFF" points="46.8,9.3 60.5,1.4 60.5,1.4 60.5,7.7 51.2,14.7 52.2,16 
		53.3,15.1 53.3,23.6 60.5,23.6 60.5,33.1 46.8,25.2 46.8,9.3 	"/>
	<polygon fill-rule="evenodd" clip-rule="evenodd" fill="#FFFFFF" points="60.5,7.7 60.5,23.6 67.8,23.6 67.8,15.1 68.9,16 
		69.9,14.7 60.5,7.7 	"/>
	<polygon fill-rule="evenodd" clip-rule="evenodd" fill="#20286D" points="60.5,7.7 60.5,7.7 51.2,14.7 52.2,16 53.3,15.1 
		53.3,23.6 60.5,23.6 60.5,23.6 60.5,7.7 60.5,7.7 	"/>
</g>
</svg>
