<?xml version="1.0" encoding="utf-8"?>
<!-- Generator: Adobe Illustrator 18.1.1, SVG Export Plug-In . SVG Version: 6.00 Build 0)  -->
<svg version="1.1" id="Laag_1" xmlns="http://www.w3.org/2000/svg" xmlns:xlink="http://www.w3.org/1999/xlink" x="0px" y="0px"
	 viewBox="0 348.3 1920 383.4" enable-background="new 0 348.3 1920 383.4" xml:space="preserve">
<g>
	<path fill="#FFFFFF" d="M1049.9,612.7l-12.2-91c-2.2-17.8-3.3-30-4.4-37.7l0,0c-1.1,6.7-4.4,14.4-7.8,24.4l-37.7,104.3h-20
		L933.4,515c-4.4-11.1-8.9-22.2-10-31.1l0,0c-1.1,11.1-2.2,23.3-4.4,38.8l-11.1,91H889L911.2,464h23.3L970,565
		c4.4,11.1,6.7,20,8.9,28.9l0,0c2.2-10,4.4-16.6,7.8-26.6l36.6-102.1h24.4l21.1,149.8h-18.9V612.7z"/>
	<path fill="#FFFFFF" d="M1187.5,612.7l-13.3-34.4h-72.1l-14.4,34.4h-18.9l59.9-149.8h20l58.8,149.8H1187.5L1187.5,612.7z
		 M1147.6,508.4c-3.3-8.9-6.7-18.9-8.9-26.6l0,0c-2.2,7.8-5.5,17.8-8.9,26.6l-21.1,55.5h62.2L1147.6,508.4L1147.6,508.4z"/>
	<polygon fill="#FFFFFF" points="1307.4,612.7 1239.7,537.2 1239.7,612.7 1220.8,612.7 1220.8,462.9 1239.7,462.9 1239.7,535 
		1307.4,462.9 1330.7,462.9 1260.8,536.1 1332.9,612.7 	"/>
	<polygon fill="#FFFFFF" points="1348.4,612.7 1348.4,462.9 1427.2,462.9 1427.2,477.3 1366.2,477.3 1366.2,528.3 1425,528.3 
		1425,542.8 1366.2,542.8 1366.2,598.3 1427.2,598.3 1427.2,612.7 	"/>
	<polygon fill="#FFFFFF" points="1443.9,612.7 1443.9,462.9 1462.8,462.9 1462.8,598.3 1519.4,598.3 1519.4,612.7 	"/>
	<path fill="#FFFFFF" d="M1647,612.7l-13.3-34.4h-72.1l-13.3,34.4h-18.9l59.9-149.8h20l58.8,149.8H1647L1647,612.7z M1607,508.4
		c-3.3-8.9-6.7-18.9-8.9-26.6l0,0c-2.2,7.8-5.5,17.8-8.9,26.6l-21.1,55.5h62.2L1607,508.4L1607,508.4z"/>
	<path fill="#FFFFFF" d="M1785.7,612.7l-13.3-34.4h-72.1l-13.3,34.4h-18.9l59.9-149.8h20l58.8,149.8H1785.7L1785.7,612.7z
		 M1745.8,508.4c-3.3-8.9-6.7-18.9-8.9-26.6l0,0c-2.2,7.8-5.5,17.8-8.9,26.6l-21.1,55.5h62.2L1745.8,508.4L1745.8,508.4z"/>
	<path fill="#FFFFFF" d="M1896.7,612.7l-56.6-68.8h-1.1v68.8h-18.9V462.9c8.9,0,21.1-1.1,38.8-1.1c33.3,0,52.2,13.3,52.2,37.7
		c0,27.7-22.2,42.2-51.1,43.3c4.4,4.4,8.9,10,13.3,15.5l46.6,54.4H1896.7L1896.7,612.7z M1856.7,477.3c-7.8,0-12.2,0-17.8,1.1v53.3
		c5.5,1.1,12.2,1.1,17.8,1.1c21.1,0,34.4-11.1,34.4-28.9C1892.3,485.1,1878.9,477.3,1856.7,477.3L1856.7,477.3z"/>
	<path fill="#FFFFFF" d="M102.1,616H57.7L0,464h41.1l26.6,71c4.4,12.2,8.9,25.5,12.2,41.1l0,0c3.3-14.4,7.8-28.9,12.2-41.1l26.6-71
		h38.8L102.1,616L102.1,616z"/>
	<path fill="#FFFFFF" d="M224.2,617.1c-11.1,0-31.1-1.1-54.4-1.1V464c15.5,0,41.1-1.1,61-1.1c41.1,0,57.7,14.4,57.7,37.7
		c0,14.4-7.8,27.7-23.3,33.3l0,0c16.6,4.4,25.5,17.8,25.5,34.4C289.7,591.6,274.1,617.1,224.2,617.1L224.2,617.1z M222,489.5
		c-4.4,0-11.1,0-15.5,0v36.6c4.4,0,8.9,0,11.1,0c17.8,0,30-6.7,30-20C247.5,496.2,241.9,489.5,222,489.5L222,489.5z M219.7,549.4
		c-3.3,0-8.9,0-13.3,0v38.8c4.4,1.1,10,1.1,16.6,1.1c18.9,0,26.6-8.9,26.6-21.1C249.7,555,238.6,549.4,219.7,549.4L219.7,549.4z"/>
	<path fill="#FFFFFF" d="M378.5,619.4c-49.9,0-76.6-31.1-76.6-77.7c0-49.9,38.8-81,82.1-81s76.6,24.4,76.6,77.7
		C460.6,588.3,422.8,619.4,378.5,619.4L378.5,619.4z M381.8,493.9c-21.1,0-38.8,15.5-38.8,45.5c0,26.6,12.2,46.6,37.7,46.6
		c21.1,0,40-14.4,40-45.5S405.1,493.9,381.8,493.9L381.8,493.9z"/>
	<path fill="#20286D" d="M840.1,628.2V451.8c0-5.5-3.3-11.1-7.8-13.3l-152-87.7c-4.4-3.3-11.1-3.3-15.5,0l-153.2,87.7l0,0
		c-4.4,3.3-7.8,7.8-7.8,13.3v176.5c0,5.5,3.3,11.1,7.8,13.3l152,87.7c4.4,3.3,11.1,3.3,15.5,0l153.2-87.7l0,0
		C836.8,639.3,840.1,633.8,840.1,628.2L840.1,628.2z"/>
	<polygon fill="#FFFFFF" points="519.4,451.8 671.4,364.1 671.4,364.1 671.4,434 568.2,511.7 579.3,526.1 591.5,516.1 591.5,610.5 
		671.4,610.5 671.4,715.9 519.4,628.2 	"/>
	<polygon fill="#FFFFFF" points="671.4,434 671.4,610.5 752.5,610.5 752.5,516.1 764.7,526.1 775.8,511.7 	"/>
	<polygon fill="#20286D" points="671.4,434 671.4,434 568.2,511.7 579.3,526.1 591.5,516.1 591.5,610.5 671.4,610.5 671.4,610.5 
		671.4,434 	"/>
</g>
</svg>
